<svg xmlns="http://www.w3.org/2000/svg" viewBox="0 0 920 210" width="920" height="210">
  <defs>
    <!-- Background Gradient -->
    <linearGradient id="card-bg" x1="0%" y1="0%" x2="100%" y2="100%">
      <stop offset="0%" stop-color="#01081A" />
      <stop offset="100%" stop-color="#021C4F" />
    </linearGradient>
    
    <!-- Border Gradient -->
    <linearGradient id="border-grad" x1="0%" y1="0%" x2="100%" y2="100%">
      <stop offset="0%" stop-color="#C50337" stop-opacity="0.5" />
      <stop offset="100%" stop-color="#2E79FF" stop-opacity="0.1" />
    </linearGradient>

    <!-- Cells Highlight Gradient -->
    <linearGradient id="cell-bg" x1="0%" y1="0%" x2="100%" y2="100%">
      <stop offset="0%" stop-color="#ffffff" stop-opacity="0.04" />
      <stop offset="100%" stop-color="#ffffff" stop-opacity="0.01" />
    </linearGradient>
  </defs>

  <style>
    .font-sans { font-family: -apple-system, BlinkMacSystemFont, "Segoe UI", Helvetica, Arial, sans-serif; }
    
    /* Pop in transition */
    @keyframes pop-in {
      0% { transform: scale(0.95); opacity: 0; }
      100% { transform: scale(1); opacity: 1; }
    }
    .repo-card {
      animation: pop-in 0.6s cubic-bezier(0.34, 1.56, 0.64, 1) forwards;
      transform-origin: center;
    }
  </style>

  <!-- Card Body -->
  <rect x="1" y="1" width="918" height="208" rx="16" fill="url(#card-bg)" stroke="url(#border-grad)" stroke-width="1.5" />

  <!-- Main Container -->
  <g class="font-sans">
    <!-- Header -->
    <text x="35" y="32" font-size="14" font-weight="900" fill="#ffffff" letter-spacing="1.5">ABEL'S PUBLIC REPOSITORIES (3)</text>
    <line x1="35" y1="42" x2="885" y2="42" stroke="#2E79FF" stroke-width="1" opacity="0.3" />

    <!-- Repo Card: Digital_Portfolio -->
    <g class="repo-card" transform="translate(35, 65)">
      <rect width="270" height="110" rx="12" fill="url(#cell-bg)" stroke="url(#border-grad)" stroke-width="1.2" />
      <text x="15" y="28" font-size="13" font-weight="bold" fill="#ffffff" font-family="-apple-system, BlinkMacSystemFont, 'Segoe UI', Helvetica, Arial, sans-serif">Digital_Portfolio</text>
      <text x="15" y="48" font-size="10" fill="#94a3b8" font-family="-apple-system, BlinkMacSystemFont, 'Segoe UI', Helvetica, Arial, sans-serif">A digital portfolio built with HTML, CSS, ...</text>
      
      <!-- Stats -->
      <g transform="translate(15, 82)">
        <!-- Star Icon -->
        <svg x="0" y="0" width="12" height="12" viewBox="0 0 16 16">
          <path d="M8 .25a.75.75 0 0 1 .673.418l1.882 3.815 4.21.612a.75.75 0 0 1 .416 1.279l-3.046 2.97.719 4.192a.75.75 0 0 1-1.088.791L8 12.347l-3.766 1.98a.75.75 0 0 1-1.088-.79l.72-4.194L.818 6.374a.75.75 0 0 1 .416-1.28l4.21-.611L7.327.668A.75.75 0 0 1 8 .25z" fill="#FF5D82" />
        </svg>
        <text x="16" y="10" font-size="10.5" font-weight="bold" fill="#FF5D82" font-family="ui-monospace, SFMono-Regular, Consolas, monospace">0</text>
        
        <!-- Fork Icon -->
        <svg x="55" y="0" width="12" height="12" viewBox="0 0 16 16">
          <path d="M5 3.25a.75.75 0 1 1-1.5 0 .75.75 0 0 1 1.5 0zm0 2.122a2.25 2.25 0 1 0-1.5 0v.878A2.25 2.25 0 0 0 5.75 8.5h1.5v2.128a2.251 2.251 0 1 0 1.5 0V8.5a2.25 2.25 0 0 0-2.25-2.25h-1.5v-.878z" fill="#2E79FF" />
        </svg>
        <text x="71" y="10" font-size="10.5" font-weight="bold" fill="#2E79FF" font-family="ui-monospace, SFMono-Regular, Consolas, monospace">0</text>
      </g>
      
      <!-- Language -->
      <g transform="translate(255, 82)">
        <circle cx="-5" cy="5" r="4" fill="#2E79FF" />
        <text x="-15" y="9" font-size="10" font-weight="bold" fill="#cbd5e1" font-family="-apple-system, BlinkMacSystemFont, 'Segoe UI', Helvetica, Arial, sans-serif" text-anchor="end">HTML</text>
      </g>
    </g>
    <!-- Repo Card: Polynomial-Addition -->
    <g class="repo-card" transform="translate(325, 65)">
      <rect width="270" height="110" rx="12" fill="url(#cell-bg)" stroke="url(#border-grad)" stroke-width="1.2" />
      <text x="15" y="28" font-size="13" font-weight="bold" fill="#ffffff" font-family="-apple-system, BlinkMacSystemFont, 'Segoe UI', Helvetica, Arial, sans-serif">Polynomial-Addition</text>
      <text x="15" y="48" font-size="10" fill="#94a3b8" font-family="-apple-system, BlinkMacSystemFont, 'Segoe UI', Helvetica, Arial, sans-serif">This repository contains a C language appl...</text>
      
      <!-- Stats -->
      <g transform="translate(15, 82)">
        <!-- Star Icon -->
        <svg x="0" y="0" width="12" height="12" viewBox="0 0 16 16">
          <path d="M8 .25a.75.75 0 0 1 .673.418l1.882 3.815 4.21.612a.75.75 0 0 1 .416 1.279l-3.046 2.97.719 4.192a.75.75 0 0 1-1.088.791L8 12.347l-3.766 1.98a.75.75 0 0 1-1.088-.79l.72-4.194L.818 6.374a.75.75 0 0 1 .416-1.28l4.21-.611L7.327.668A.75.75 0 0 1 8 .25z" fill="#FF5D82" />
        </svg>
        <text x="16" y="10" font-size="10.5" font-weight="bold" fill="#FF5D82" font-family="ui-monospace, SFMono-Regular, Consolas, monospace">0</text>
        
        <!-- Fork Icon -->
        <svg x="55" y="0" width="12" height="12" viewBox="0 0 16 16">
          <path d="M5 3.25a.75.75 0 1 1-1.5 0 .75.75 0 0 1 1.5 0zm0 2.122a2.25 2.25 0 1 0-1.5 0v.878A2.25 2.25 0 0 0 5.75 8.5h1.5v2.128a2.251 2.251 0 1 0 1.5 0V8.5a2.25 2.25 0 0 0-2.25-2.25h-1.5v-.878z" fill="#2E79FF" />
        </svg>
        <text x="71" y="10" font-size="10.5" font-weight="bold" fill="#2E79FF" font-family="ui-monospace, SFMono-Regular, Consolas, monospace">0</text>
      </g>
      
      <!-- Language -->
      <g transform="translate(255, 82)">
        <circle cx="-5" cy="5" r="4" fill="#2E79FF" />
        <text x="-15" y="9" font-size="10" font-weight="bold" fill="#cbd5e1" font-family="-apple-system, BlinkMacSystemFont, 'Segoe UI', Helvetica, Arial, sans-serif" text-anchor="end">C</text>
      </g>
    </g>
    <!-- Repo Card: Video_Portfolio -->
    <g class="repo-card" transform="translate(615, 65)">
      <rect width="270" height="110" rx="12" fill="url(#cell-bg)" stroke="url(#border-grad)" stroke-width="1.2" />
      <text x="15" y="28" font-size="13" font-weight="bold" fill="#ffffff" font-family="-apple-system, BlinkMacSystemFont, 'Segoe UI', Helvetica, Arial, sans-serif">Video_Portfolio</text>
      <text x="15" y="48" font-size="10" fill="#94a3b8" font-family="-apple-system, BlinkMacSystemFont, 'Segoe UI', Helvetica, Arial, sans-serif">This Video Portfolio is an interactive Rea...</text>
      
      <!-- Stats -->
      <g transform="translate(15, 82)">
        <!-- Star Icon -->
        <svg x="0" y="0" width="12" height="12" viewBox="0 0 16 16">
          <path d="M8 .25a.75.75 0 0 1 .673.418l1.882 3.815 4.21.612a.75.75 0 0 1 .416 1.279l-3.046 2.97.719 4.192a.75.75 0 0 1-1.088.791L8 12.347l-3.766 1.98a.75.75 0 0 1-1.088-.79l.72-4.194L.818 6.374a.75.75 0 0 1 .416-1.28l4.21-.611L7.327.668A.75.75 0 0 1 8 .25z" fill="#FF5D82" />
        </svg>
        <text x="16" y="10" font-size="10.5" font-weight="bold" fill="#FF5D82" font-family="ui-monospace, SFMono-Regular, Consolas, monospace">0</text>
        
        <!-- Fork Icon -->
        <svg x="55" y="0" width="12" height="12" viewBox="0 0 16 16">
          <path d="M5 3.25a.75.75 0 1 1-1.5 0 .75.75 0 0 1 1.5 0zm0 2.122a2.25 2.25 0 1 0-1.5 0v.878A2.25 2.25 0 0 0 5.75 8.5h1.5v2.128a2.251 2.251 0 1 0 1.5 0V8.5a2.25 2.25 0 0 0-2.25-2.25h-1.5v-.878z" fill="#2E79FF" />
        </svg>
        <text x="71" y="10" font-size="10.5" font-weight="bold" fill="#2E79FF" font-family="ui-monospace, SFMono-Regular, Consolas, monospace">0</text>
      </g>
      
      <!-- Language -->
      <g transform="translate(255, 82)">
        <circle cx="-5" cy="5" r="4" fill="#FF5D82" />
        <text x="-15" y="9" font-size="10" font-weight="bold" fill="#cbd5e1" font-family="-apple-system, BlinkMacSystemFont, 'Segoe UI', Helvetica, Arial, sans-serif" text-anchor="end">JavaScript</text>
      </g>
    </g>
  </g>
</svg>